# xmcd CD database file
#
# Track frame offsets:
#	150
#	17554
#	42664
#	67462
#	85403
#	116850
#	135253
#	148688
#	172208
#	190286
#	205323
#	227502
#
# Disc length: 3308 seconds
#
# Revision: 0
# Processed by: cddbd v1.5.2PL0 Copyright (c) Steve Scherf et al.
# Submitted via: CDex 1.70beta2
#
DISCID=b80cea0c
DTITLE=Chet Baker - Modern Jazz West Coast Jazz 1956 CD 021
DYEAR=2008
DGENRE=Jazz
TTITLE0=Helena
TTITLE1=Lucious Lu
TTITLE2=Medium Rock
TTITLE3=Revelation
TTITLE4=Slightly Aboce Moderate
TTITLE5=Something For Liza
TTITLE6=Worrying The Life Out Of Me
TTITLE7=To Mickey's Memory
TTITLE8=Pawnee Junction
TTITLE9=Chippyin'
TTITLE10=Jumpin' Of A Clef
TTITLE11=Music To Dance By
EXTD=YEAR: 2008
EXTT0=
EXTT1=
EXTT2=
EXTT3=
EXTT4=
EXTT5=
EXTT6=
EXTT7=
EXTT8=
EXTT9=
EXTT10=
EXTT11=
PLAYORDER=
